<?xml version="1.0" encoding="UTF-8"?>
<svg id="a" xmlns="http://www.w3.org/2000/svg" viewBox="0 0 864 864">
  <defs>
    <style>
      .b, .c {
        stroke-width: 0px;
      }

      .c {
        fill: #fff;
      }
    </style>
  </defs>
  <rect class="c" width="864" height="864"/>
  <path class="b" d="m813.63,316.69c-.24,1.75-.42,3.51-.72,5.24-2.23,12.92-8.2,23.99-16.79,33.74-4.9,5.56-10.42,10.43-16.61,14.52-3.63,2.4-6.46,2.11-9.58-.99-3.86-3.83-7.7-7.67-11.53-11.53-2.9-2.92-3.26-5.32-1.43-9.03,2.14-4.35,3.65-8.89,4.28-13.71.29-2.26.34-4.54-.49-6.67-.52-1.33-1.35-2.62-2.32-3.68-1.46-1.59-3.39-1.88-5.33-.92-1.09.54-2.16,1.26-3.03,2.11-11.11,10.97-22.18,21.97-33.25,32.97-.32.32-.6.69-1.13,1.29.75.62,1.49,1.19,2.16,1.82,26.36,24.56,52.79,49.05,79.06,73.72,19.04,17.88,11.97,49.06-12.17,56.85-13.63,4.4-26.09,1.56-36.05-9.02-26.6-28.28-53.01-56.74-79.53-85.1-1.97-2.11-2.97-4.34-1.89-7.17,1.67-4.37,6.83-5.64,10.29-2.51,1.03.94,1.94,2.01,2.89,3.03,25.8,27.65,51.61,55.29,77.39,82.95,5.73,6.14,12.8,8,20.78,6.28,8.17-1.76,13.44-6.95,15.58-14.98,2.12-7.94.05-15-5.86-20.66-8.58-8.22-17.36-16.23-26.06-24.32-19.67-18.3-39.34-36.61-59-54.92-.79-.74-1.58-1.52-2.17-2.41-1.85-2.79-1.52-5.63.84-8.02,2.79-2.81,5.6-5.6,8.4-8.4,10.11-10.1,20.21-20.21,30.31-30.31,3.45-3.45,7.54-5.65,12.42-6.33,4.72-.65,8.95.51,12.69,3.38,6.96,5.34,9.05,12.68,8.43,21.06-.4,5.47-1.95,10.66-4.09,15.93,1.89,1.97,3.8,3.97,5.7,5.96.36-.11.61-.12.77-.25,9.13-7.3,16.42-16.02,20.84-26.96,2.87-7.11,3.87-14.51,3.5-22.13-.36-7.46-1.15-14.86-3.57-21.99-.74-2.2-1.67-4.34-2.61-6.46-1.02-2.29-2.52-4.24-4.31-6.02-7.45-7.38-14.89-14.76-22.23-22.25-3.32-3.39-7.19-5.24-11.93-5.52-7.45-.45-14.1-2.88-19.47-8.28-.27-.28-.56-.54-.83-.82-3.84-3.98-3.74-7.35.28-11.2.95-.91,1.79-1.93,2.8-3.04-.15-.21-.38-.6-.68-.91-3.25-3.33-6.5-6.68-9.79-9.98-3.17-3.18-6.32-3.19-9.51.02-9.48,9.52-18.93,19.07-28.38,28.62-2.73,2.76-2.86,5.63-.19,8.4,3.61,3.74,7.36,7.34,11.19,11.14.46-.37.94-.7,1.36-1.11,1.01-.96,1.95-2.01,3-2.93,2.69-2.37,5.88-2.44,8.69-.21,2.92,2.32,5.09,5.26,6.44,8.71,2.41,6.12,3.09,12.48,2.09,18.98-.81,5.22-3.17,9.73-6.84,13.5-5.31,5.45-10.72,10.8-16.1,16.19-6.86,6.87-13.73,13.73-20.59,20.59-.6.6-1.2,1.23-1.86,1.76-2.34,1.85-5.35,1.89-7.77.13-.44-.32-.84-.69-1.23-1.06-9.7-9.06-19.34-18.2-29.14-27.16-3.03-2.76-3.26-6.06-2.02-9.22,11.17-28.31-5.73-59.31-35.59-65.38-.53-.11-1.08-.15-1.61-.24-4.53-.74-3.68-.89-7.03,2.75.41.48.8,1.02,1.27,1.48,6.06,6.02,12.09,12.07,18.24,18,2.03,1.95,3.19,4.14,3.3,6.93.24,5.97.49,11.95.75,17.92.09,2.15-.66,3.96-2.17,5.45-5.96,5.9-11.94,11.78-17.91,17.67-1.54,1.51-3.41,2.09-5.53,1.96-6.12-.37-12.24-.81-18.36-1.1-2.1-.1-3.64-.93-5.09-2.38-6.36-6.38-12.79-12.69-19.2-19.02-.38-.37-.79-.72-1.2-1.09-.27.14-.5.21-.66.35-1.81,1.69-2.52,3.77-2.11,6.24,3.34,20.46,19.08,36.67,39.35,40.35,9.06,1.64,17.94.68,26.52-2.74.79-.31,1.59-.67,2.41-.81,2.52-.43,4.49.56,6.21,2.4,6.94,7.44,13.94,14.82,20.91,22.23,2.24,2.37,4.49,4.73,6.7,7.13,3.25,3.51,3.2,7.05-.17,10.45-4.71,4.74-9.42,9.47-14.2,14.14-3.75,3.67-8.25,5.77-13.53,5.94-2.1.07-3.65.99-5.09,2.43-12.17,12.21-24.37,24.39-36.56,36.58-11.26,11.26-22.52,22.51-33.76,33.78-.7.7-1.4,1.48-1.84,2.36-1.2,2.39-.84,4.23,1.05,6.13,8.03,8.11,16.07,16.22,24.12,24.31.54.55,1.14,1.06,1.79,1.47,2.35,1.47,4.58,1.28,6.59-.62,2.03-1.92,3.97-3.93,5.95-5.91,17.16-17.21,34.32-34.43,51.48-51.64,3.89-3.91,7.79-7.81,11.67-11.73,1.89-1.9,4.09-2.77,6.76-2.09,4.74,1.2,6.4,6.96,3.03,10.54-.59.62-1.21,1.21-1.81,1.81-22.57,22.57-45.16,45.12-67.7,67.72-5.51,5.52-11.92,6.86-19.23,4.72-2.44-.72-4.47-2.15-6.25-3.93-8.57-8.56-17.1-17.17-25.7-25.7-3.12-3.1-4.84-6.79-5.28-11.11-.12-1.22-.02-2.47-.02-4h-78.63c-126.04,0-252.09,0-378.13.01-7.32,0-13.05-2.95-17.22-8.92-1.53-2.18-2.49-4.63-2.99-7.27-.24-1.29-.6-2.55-.9-3.83v-129.07c.3-1.27.65-2.53.9-3.8.77-3.92,2.52-7.32,5.33-10.16,4.09-4.13,9.05-6.06,14.87-6.06,76.96.02,153.92.01,230.89.01h230.22c-.39-3.5-.74-6.73-1.12-9.95-.24-2.04.16-3.92,1.57-5.41,3.31-3.49,6.65-6.96,10.09-10.33,2.07-2.03,4.98-2.34,7.55-.96.94.51,1.79,1.23,2.55,1.99,7.07,7.1,14.12,14.21,21.13,21.37.99,1.01,1.96,1.55,3.42,1.57,3.65.07,7.29.28,10.93.52,1.05.07,1.75-.28,2.45-1,3.9-4.01,7.81-8.01,11.77-11.95.85-.85,1.18-1.7,1.11-2.88-.21-3.49-.41-6.98-.48-10.47-.03-1.36-.53-2.28-1.48-3.21-7.26-7.13-14.47-14.3-21.68-21.48-3.58-3.57-3.5-7.41.14-10.97,2.89-2.82,5.82-5.6,8.65-8.48,1.35-1.38,2.91-2.05,4.79-1.95,2.71.15,5.44.23,8.12.63,14.2,2.12,26.26,8.44,35.81,19.15,15.24,17.1,19.7,36.83,13.6,58.9-.48,1.73-.29,2.75,1.08,3.98,6.44,5.84,12.75,11.83,19.12,17.76.62.58,1.25,1.13,2,1.81.7-.67,1.32-1.24,1.91-1.83,9.94-9.94,19.78-19.98,29.86-29.77,5.15-5,6.31-10.79,4.86-17.45-.11-.49-.33-.95-.55-1.58-.52.45-.86.75-1.21,1.04-4.25,3.47-9.86,3.37-13.76-.42-4.62-4.49-9.23-9.01-13.65-13.7-7.21-7.65-7.04-19.02.35-26.46,8.87-8.92,17.92-17.67,26.73-26.64,3.69-3.76,7.66-6.77,12.94-7.71.07,0,.13-.09.19-.13h5.13c.57.2,1.13.44,1.71.59,2.42.65,4.9,1.37,6.7,3.11,5.66,5.42,11.34,10.83,16.65,16.59,3.19,3.46,2.66,8.37-.47,11.89-.6.67-1.19,1.35-2.11,2.4,1.78.53,3.14,1.1,4.54,1.32,2.22.35,4.49.36,6.71.69,6.52.97,12,3.96,16.64,8.63,7.6,7.66,15.23,15.29,22.9,22.89,2.68,2.66,4.83,5.66,6.49,9.03,4.21,8.54,6.34,17.62,6.91,27.09.07,1.15.31,2.28.47,3.42v13.05-.06Zm-647.72,112.79c.2-.97.37-1.72.5-2.49,1.96-11.31,3.91-22.62,5.86-33.93,1.26-7.34,2.63-14.66,3.1-22.11.31-5.03.85-10.06,1.03-15.1.33-9.39.48-18.78.69-28.17,0-.37-.1-.74-.16-1.22h-15.3c.27,25.46-1.74,50.62-4.87,75.7-.17.02-.35.04-.52.06-3.5-12.01-7.01-24.02-10.53-36.08h-11.57c-1.78,6.1-3.52,12.12-5.3,18.14-1.77,5.96-3.34,11.99-5.58,17.86-1.16-8.43-2.16-16.82-2.89-25.24-.72-8.35-1.32-16.72-1.68-25.09-.36-8.42-.36-16.86-.53-25.49-5.19.02-10.19-.14-15.41.11v2.75c-.1,12.35.38,24.69,1.31,37,.46,6.1,1.15,12.21,2.1,18.26,1.77,11.26,3.8,22.48,5.73,33.72.64,3.73,1.31,7.45,1.98,11.26h16.88c3.12-11.8,5.93-23.56,9.29-35.21,3.29,11.76,6.01,23.59,9.1,35.26h16.78-.01Zm144.73-7.33c2.18,1.69,3.83,3.24,5.73,4.38,9.87,5.9,20.18,6.22,30.55,1.65,9.32-4.1,14.87-11.69,17.98-21.17,2.73-8.31,2.7-16.79,1.17-25.31-.99-5.55-2.79-10.81-5.8-15.61-4.37-6.98-10.51-11.55-18.58-13.33-5.14-1.14-10.33-1.13-15.48.02-5.75,1.29-10.82,3.8-14.65,8.44-.12.14-.38.18-.91.41v-40.19c0-.89-.09-1.78-.14-2.62h-15.41v110.58h15.54v-7.25h0Zm99.52-48.07h2.6c3.42,0,6.83-.05,10.25.02,4.69.09,9.28.75,13.59,2.76,5.74,2.68,9.39,7.06,10.38,13.38.36,2.28.49,4.65.3,6.95-.53,6.51-3.54,11.64-9.14,15.14-2.86,1.79-5.97,3-9.28,3.59-12.26,2.18-23.93.46-34.96-5.4-.72-.38-1.44-.75-2.31-1.19v15.18c.59.28,1.06.54,1.56.74,7.58,3.09,15.36,5.4,23.6,5.85,9.46.51,18.59-.82,27.17-4.98,7.29-3.53,12.95-8.78,16.27-16.3,2.8-6.34,3.55-12.98,2.61-19.82-1.47-10.73-6.77-18.84-16.49-23.87-3.33-1.73-6.88-2.82-10.59-3.37-1.56-.23-3.12-.45-4.96-.71.65-.69,1.06-1.14,1.49-1.57,8.32-8.26,16.62-16.54,24.97-24.77,1.01-1,1.51-1.99,1.47-3.45-.1-3.8-.02-7.61-.04-11.41,0-.67-.11-1.33-.17-1.95-3.9-.53-65.28-.33-66.85.18v13.85h33.44c2.17,0,4.35-.04,6.52.01,2.18.06,4.4-.26,6.86.27-2.05,2.11-3.88,3.99-5.72,5.87-7.11,7.28-14.22,14.54-21.3,21.85-.56.57-1.21,1.38-1.23,2.1-.13,3.56-.06,7.12-.06,11.06h.02Zm-141.27,20.54c0-3.13.12-5.92-.03-8.69-.31-5.76-1.29-11.41-3.65-16.73-3.59-8.09-9.6-13.38-18.14-15.8-4.69-1.33-9.47-1.55-14.3-1.36-13.7.53-24.39,8.07-29.12,20.94-4.22,11.51-4.52,23.27-.87,34.97,3.55,11.39,11.27,18.71,22.84,21.8,6.31,1.68,12.73,1.89,19.18.97,4.8-.68,9.42-1.97,13.52-4.68,3.49-2.31,5.98-5.39,7.1-9.47.32-1.15.43-2.36.68-3.8-5.12,0-9.92-.02-14.72.04-.41,0-.95.5-1.18.9-1.51,2.59-3.93,3.63-6.71,4.1-3.25.55-6.49.47-9.74-.02-9.11-1.37-15.91-7.99-17.34-17.05-.31-1.95-.64-3.96-.03-6.11h52.51Z"/>
  <path class="b" d="m481.39,600c-.96-.24-1.92-.51-2.89-.72-10.67-2.37-17.87-8.88-22.26-18.7-3-6.71-4.04-13.81-3.92-21.11.12-7.62,1.46-14.98,4.98-21.81,5.63-10.91,14.64-16.51,26.92-16.85,4.55-.13,8.98.51,13.26,2.04,3.93,1.41,7.34,3.62,10.35,7.1.38-3.1.14-5.84.18-8.58.05-2.79.01-5.59.01-8.38v-25.51h15.8v110.8c-1.64.45-12.56.57-15.78.13v-7.43c-.82.65-1.23.96-1.62,1.29-4.45,3.67-9.49,6.12-15.15,7.28-.35.07-.67.3-1.01.46h-8.87Zm26.9-40.5c-.43-3.14-.64-6.33-1.33-9.41-2.11-9.36-7.81-14.75-16.73-16.1-7.89-1.2-14.71,2.15-18.5,9.18-.8,1.49-1.47,3.09-1.99,4.7-1.95,6.1-2.19,12.33-1.18,18.63.77,4.8,2.27,9.31,5.17,13.31,6.44,8.88,19.6,8.82,26.22,2.58,2.3-2.17,3.99-4.74,5.21-7.63,2.05-4.86,2.85-9.96,3.13-15.25h0Z"/>
  <path class="b" d="m589.97,600c-1.27-.28-2.54-.59-3.81-.85-14.1-2.82-22.82-11.36-26.23-25.18-2.53-10.23-2.15-20.5,1.16-30.54,4.56-13.84,15.19-21.97,30.57-22.6,5.31-.22,10.55.27,15.6,2.03,9.04,3.16,14.61,9.66,17.51,18.59,2.26,6.96,2.64,14.15,2.36,21.4,0,.14-.12.27-.3.64h-52.37c0,1.68-.11,3.13.02,4.57.91,9.96,8,17.28,17.95,18.4,2.52.29,5.11.22,7.66.11,3.68-.17,6.83-1.43,8.57-5.03h15.49c.02,3.32-1.05,6.15-2.85,8.74-2,2.89-4.77,4.86-7.91,6.33-3.26,1.53-6.71,2.4-10.26,2.92-.68.1-1.34.31-2.01.47h-11.18.03Zm21.3-49.93c-.27-6.09-2.72-10.67-7.81-13.68-7.94-4.69-19.02-2.88-25.07,4.07-2.35,2.7-3.73,5.83-3.93,9.61h36.81Z"/>
  <path class="b" d="m228.84,600c-1.04-.27-2.07-.57-3.11-.82-10.49-2.52-16.51-9.32-18.69-19.68-.44-2.11-.62-4.31-.63-6.47-.05-16.22-.03-32.45-.02-48.67,0-.61.05-1.23.08-1.82,1.75-.49,12.76-.58,15.57-.08v2.89c0,15.45-.02,30.9.02,46.35,0,2.08.18,4.19.53,6.25.81,4.76,3.74,7.57,8.46,8.4,4.96.87,9.91.64,14.71-.99,5.97-2.03,9.61-6.31,11.53-12.2,1.31-4.03,1.64-8.2,1.65-12.41.02-11.88,0-23.76,0-35.63v-2.83h15.6c.45,1.67.6,72.66.15,76.21h-15.73v-7.53c-.53.23-.78.26-.92.4-4.98,4.89-11.18,7.1-17.89,8.19-.52.08-1.01.3-1.52.46h-9.79v-.02Z"/>
  <path class="b" d="m762.38,600c-1.58-.32-3.16-.64-4.75-.96-3.99-.8-7.8-2.06-11.2-4.36-5.65-3.81-8.32-9.19-8.32-16.26,5.27-.34,10.42-.08,15.62-.16.14.52.26.88.32,1.24.63,3.97,3.06,6.32,6.75,7.51,4.47,1.44,9.03,1.27,13.59.64,3.17-.43,6.23-1.28,8.96-3.05,3.71-2.41,5.05-6.1,3.76-10.3-.79-2.57-2.51-4.37-4.99-5.14-3.02-.95-6.15-1.51-9.23-2.28-5.49-1.37-10.97-2.74-16.44-4.16-1.04-.27-2.04-.73-3.05-1.13-7.15-2.83-11.24-8.12-12.22-15.68-1.16-8.98,1.9-16.79,10.83-21.18,2.41-1.18,5.03-2.08,7.65-2.68,8.39-1.93,16.78-1.77,25.07.66,3.6,1.06,6.96,2.64,9.85,5.09,3.73,3.17,5.53,7.2,5.35,12.1,0,.23-.04.46-.09.69-.04.14-.15.26-.29.51h-14.99c-.1-.12-.25-.22-.27-.35-.87-4.41-3.92-6.5-7.99-7.42-4.08-.93-8.17-.78-12.21.24-.9.23-1.78.56-2.61.96-3.05,1.48-4.78,3.81-4.77,7.33,0,3.58,1.3,6.4,4.65,7.91,1.75.79,3.64,1.32,5.52,1.75,5.66,1.3,11.37,2.41,17.02,3.77,3.4.81,6.58,2.26,9.62,4.04,10.98,6.44,11.42,19.74,7.82,27.16-1.75,3.61-4.55,6.25-7.99,8.23-4.86,2.81-10.2,4.05-15.69,4.79-.75.1-1.48.32-2.22.49h-13.06Z"/>
  <path class="b" d="m104.52,598.52v-103.54c.85-.04,1.61-.11,2.36-.11,10.17,0,20.33-.06,30.5.02,6.37.05,12.73.5,18.81,2.62,2.55.89,5.09,1.93,7.42,3.29,7.84,4.58,11.82,11.62,12.54,20.57.28,3.5.2,6.98-.96,10.36-1.82,5.31-5.13,9.33-10.2,11.83-.41.2-.82.41-1.44.73.49.26.78.47,1.09.58,5.47,1.9,9.12,5.75,11.5,10.88,6.36,13.7,1.83,35.38-19.25,41.35-3.52,1-7.12,1.56-10.79,1.56h-39.58c-.61,0-1.21-.07-2.01-.12v-.02Zm15.78-47.95v33.48c.36.09.57.19.79.19,8.22-.02,16.45.03,24.67-.1,3.19-.05,6.29-.82,9.22-2.18,4.08-1.9,6.65-5.07,7.56-9.43.41-1.95.57-4.01.47-6.01-.4-8.48-4.52-13.35-12.81-15.03-2.79-.57-5.68-.81-8.54-.87-6.2-.13-12.41-.04-18.62-.04h-2.75,0Zm-.02-13.18c.49.06.85.15,1.22.15,7.53-.01,15.05.04,22.58-.09,3.17-.05,6.34-.43,9.34-1.65,2.54-1.03,4.55-2.64,5.79-5.12,4.02-7.99.28-17.12-8.26-19.63-3.01-.89-6.24-1.31-9.38-1.42-6.59-.22-13.19-.09-19.78-.09-.51,0-1.02.14-1.5.21v27.64h0Z"/>
  <path class="b" d="m403.51,487.43v2.89c0,26.24,0,52.48.02,78.71,0,1.85.08,3.73.39,5.56,1.12,6.67,4.57,9.93,11.37,10.49,4.25.35,8.52.3,12.79.42.91.03,1.82,0,2.87,0v12.92c-.56.07-1.15.2-1.73.2-4.89.02-9.79.18-14.67-.06-3.31-.16-6.66-.61-9.86-1.42-7.42-1.89-12.21-6.73-14.63-13.98-1.49-4.46-2.03-9.08-2.22-13.74-.12-2.94-.06-5.9-.06-8.85v-73.17h15.74v.03Z"/>
  <path class="b" d="m660.56,522.22h15.47v7.97c.83-.73,1.29-1.04,1.64-1.45,7.12-8,18.65-9.8,27.58-6.36,8.98,3.46,13.36,10.44,14.16,19.83.12,1.45.02,2.92.02,4.54h-15.71c0-.96.01-1.86,0-2.76-.05-2.45-.61-4.77-1.81-6.91-1.71-3.04-4.32-4.61-7.81-4.6-5.97.03-10.64,2.47-13.76,7.65-2.16,3.6-3.2,7.57-3.67,11.68-.32,2.85-.46,5.73-.48,8.6-.05,11.8-.02,23.61-.02,35.41v2.66h-15.49c-.46-1.64-.61-72.83-.13-76.27h.01Z"/>
  <path class="b" d="m305.05,536.52c-.07-.78-.15-1.23-.15-1.68v-12.25c1.88-.58,34.05-.81,40.06-.34.06.05.11.11.16.17.05.06.14.11.14.17.05.46.11.92.11,1.39-.02,24.67-.04,49.34-.07,74.01,0,.13-.13.26-.27.53h-15.54c-.05-6.82-.01-13.62-.02-20.41v-41.42c-2.79-.35-5.48-.12-8.15-.16-2.64-.04-5.28,0-7.91,0h-8.36Z"/>
  <path class="b" d="m323.72,487.43h21.6c.13,6.38.04,12.75.06,19.24h-21.56c-.49-1.66-.59-16.63-.1-19.24Z"/>
  <path class="b" d="m351.38,391.12c-.04,6.43-.93,11.5-3.27,16.26-4.8,9.78-14.14,12.37-22.82,9.92-4.46-1.26-7.78-4.07-10.2-7.98-2.2-3.56-3.42-7.47-3.96-11.58-.86-6.54-.63-13.02,1.67-19.28,2.2-5.97,5.97-10.47,12.23-12.49,3.47-1.12,7.03-1.29,10.58-.67,4.5.78,7.99,3.24,10.57,7,2.7,3.93,4.01,8.37,4.66,13.02.32,2.3.43,4.63.54,5.79h0Z"/>
  <path class="b" d="m216.19,381.4c.28-4.58,2.07-8.24,5.26-11.21,6.23-5.8,16.76-6.97,24.08-2.63,5.16,3.06,7.61,7.69,7.64,13.84h-36.98Z"/>
</svg>